SplineFontDB: 3.0
FontName: MyGaramond
FullName: MyGaramond
FamilyName: MyGaramond
Weight: Regular
Copyright: Created by trashman with FontForge 2.0 (http://fontforge.sf.net)
UComments: "2010-10-15: Created." 
Version: 001.000
ItalicAngle: 0
UnderlinePosition: -100
UnderlineWidth: 50
Ascent: 725
Descent: 275
LayerCount: 3
Layer: 0 0 "Back"  1
Layer: 1 0 "Fore"  0
Layer: 2 0 "backup"  0
NeedsXUIDChange: 1
XUID: [1021 658 797806517 11800223]
OS2Version: 0
OS2_WeightWidthSlopeOnly: 0
OS2_UseTypoMetrics: 1
CreationTime: 1287179752
ModificationTime: 1287310121
OS2TypoAscent: 0
OS2TypoAOffset: 1
OS2TypoDescent: 0
OS2TypoDOffset: 1
OS2TypoLinegap: 0
OS2WinAscent: 0
OS2WinAOffset: 1
OS2WinDescent: 0
OS2WinDOffset: 1
HheadAscent: 0
HheadAOffset: 1
HheadDescent: 0
HheadDOffset: 1
OS2Vendor: 'PfEd'
MarkAttachClasses: 1
DEI: 91125
Encoding: UnicodeBmp
UnicodeInterp: none
NameList: Adobe Glyph List
DisplaySize: -48
AntiAlias: 1
FitToEm: 1
WinInfo: 84 12 4
BeginPrivate: 9
BlueValues 9 [698 713]
OtherBlues 11 [-227 -227]
BlueScale 8 0.039625
BlueShift 1 7
BlueFuzz 1 0
StdHW 4 [26]
StemSnapH 25 [17 21 26 35 43 48 63 78]
StdVW 4 [74]
StemSnapV 4 [74]
EndPrivate
BeginChars: 65537 64

StartChar: a
Encoding: 97 97 0
Width: 386
VWidth: -15
Flags: HW
HStem: -20 63<276 334.17> -18 49<87 172.751> 337 55<136.108 211.823>
VStem: 28 76<37.0009 112.259 264.172 318.543> 228 74<43.0051 45.3223 66.7181 170 187.15 310.479>
LayerCount: 3
Fore
SplineSet
227 170 m 1x78
 188 157 104 126 104 92 c 0
 104 66 118 31 142 31 c 0
 179 31 225 85 225 85 c 1
 227 170 l 1x78
152 336 m 0
 116 336 104 320 104 292 c 0
 104 273 103 273 96 269 c 2
 64 250 l 2
 60 248 55 246 51 246 c 0
 40 246 31 255 31 276 c 0
 31 292 40 312 52 322 c 0
 88 350 168 392 197 392 c 0
 232 392 302 368 302 307 c 0
 302 260 299 73 299 69 c 0
 299 50 311 43 319 43 c 0
 337 43 340 59 351 73 c 1
 374 61 l 1
 367 40 350 18 332 2 c 0
 320 -9 314 -17 291 -17 c 0xb8
 261 -17 230 -4 228 42 c 0
 228 51 218 52 212 45 c 0
 175 7 158 -18 110 -18 c 0
 64 -18 28 12 28 68 c 0
 28 134 157 171 228 194 c 1
 228 261 l 2
 228 282 228 300 217 311 c 0
 204 323 181 336 152 336 c 0
EndSplineSet
EndChar

StartChar: b
Encoding: 98 98 1
Width: 485
VWidth: -5
Flags: HW
HStem: -14 41<182.994 310.117> 340 12<143 227> 602 22<11 34.3547>
VStem: 61 25<-17 9.42603> 64 74<70.9848 326.156 352.006 592.765> 373 80<102.674 261.789>
LayerCount: 3
Fore
SplineSet
171 365 m 0xec
 193 376 225 392 265 392 c 0
 368 392 453 303 453 193 c 0
 453 153 446 126 429 98 c 0
 406 61 383 42 353 24 c 0
 316 1 281 -14 235 -14 c 0
 198 -14 154 -2 135 6 c 0
 125 11 118 15 111 15 c 0
 91 15 86 -17 86 -17 c 1
 61 -17 l 1xf4
 61 -17 64 49 64 100 c 2
 64 561 l 2
 64 599 34 601 11 602 c 1
 11 624 l 1
 50 641 105 672 135 691 c 1
 150 683 l 1
 150 683 138 575 138 428 c 2
 138 380 l 2
 138 360 138 352 143 352 c 0
 147 352 156 358 171 365 c 0xec
138 299 m 2xec
 138 206 l 2
 138 175 140 142 143 113 c 0
 149 59 199 27 245 27 c 0
 332 27 373 112 373 187 c 0
 373 262 311 340 227 340 c 0
 185 340 138 326 138 299 c 2xec
EndSplineSet
EndChar

StartChar: c
Encoding: 99 99 2
Width: 434
VWidth: 5
Flags: HW
HStem: -20 65<182.705 303.799> 359 36<167.833 277.138>
VStem: 28 79<122.296 266.823>
LayerCount: 3
Fore
SplineSet
252 396 m 0
 301 396 383 380 383 325 c 0
 383 297 354 281 332 281 c 0
 311 281 300 310 290 328 c 0
 277 349 246 359 228 359 c 0
 150 359 107 287 107 205 c 0
 107 112 177 44 258 44 c 0
 322 44 353 73 381 100 c 1
 400 75 l 1
 400 75 324 -18 222 -18 c 0
 118 -18 28 65 28 168 c 0
 28 248 66 313 122 353 c 0
 158 378 195 396 252 396 c 0
EndSplineSet
Layer: 2
SplineSet
252 396 m 4
 301 396 383 380 383 325 c 4
 383 297 354 281 332 281 c 4
 311 281 300 310 290 328 c 4
 277 349 246 359 228 359 c 4
 150 359 107 287 107 205 c 4
 107 112 177 44 258 44 c 4
 322 44 352 76 381 100 c 5
 400 74 l 5
 400 74 315 -18 222 -18 c 4
 118 -18 28 65 28 168 c 4
 28 248 66 313 122 353 c 4
 158 378 195 396 252 396 c 4
EndSplineSet
EndChar

StartChar: d
Encoding: 100 100 3
Width: 494
VWidth: 0
Flags: HW
HStem: -17 54<171.128 270.169> 22 23<432.389 467> 363 30<175.935 286.129> 679 20G<391 416>
VStem: 25 84<107.489 267.812> 334 82<445.236 614.909> 334 74<64.7807 321.182>
LayerCount: 3
Fore
SplineSet
334 41 m 0x7a
 334 43 330 52 320 43 c 0
 286 13 251 -17 192 -17 c 0
 89 -17 26 86 26 176 c 0
 26 289 126 395 243 395 c 0
 268 395 301 386 310 382 c 0
 315 380 319 379 322 379 c 0
 333 379 334 391 334 408 c 2xba
 334 511 l 2
 334 529 334 551 333 581 c 0
 332 620 306 616 274 621 c 1
 274 643 l 1
 313 654 375 679 407 699 c 1
 416 693 l 1xbc
 416 499 408 358 408 174 c 2
 408 85 l 2
 408 50 418 41 437 41 c 0
 445 41 456 43 467 45 c 1
 467 22 l 1
 431 11 381 -4 345 -18 c 1
 331 -10 l 1
 331 -10 334 29 334 41 c 0x7a
109 198 m 0
 109 109 166 37 235 37 c 0
 277 37 334 79 334 79 c 1
 334 256 l 2
 334 318 291 363 232 363 c 0
 153 363 109 278 109 198 c 0
EndSplineSet
EndChar

StartChar: e
Encoding: 101 101 4
Width: 394
VWidth: -10
Flags: HW
HStem: -20 63<180.804 280.114> 226 27<109.439 274.564> 226 17<108 218.891> 366 32<162.848 249.502>
VStem: 28 77<120.716 223.602> 282 79<257.553 333.787>
LayerCount: 3
Fore
SplineSet
199 -18 m 0
 98 -18 24 76 24 168 c 0
 24 263 65 333 145 380 c 0
 165 392 198 398 223 398 c 0
 315 398 358 329 358 224 c 1
 99 224 l 1
 99 210 l 2
 99 95 179 46 235 46 c 0
 285 46 323 79 341 94 c 1
 341 93 358 77 358 77 c 1
 340 46 271 -18 199 -18 c 0
105 248 m 1
 135 250 213 256 241 258 c 0
 262 260 275 265 275 283 c 0
 275 325 245 363 204 363 c 0
 156 363 113 305 105 248 c 1
EndSplineSet
EndChar

StartChar: f
Encoding: 102 102 5
Width: 334
VWidth: 0
Flags: HW
HStem: -4 32<30 114.396 203.069 301> 339 45<30 119 197 323> 610 81<251.261 335.397>
VStem: 121 74<36.3685 339 384 534.019>
LayerCount: 3
Fore
SplineSet
30 339 m 1
 30 384 l 1
 121 384 l 1
 121 430 125 500 147 545 c 0
 183 620 250 691 315 691 c 0
 323 691 362 686 362 644 c 0
 362 606 339 599 316 599 c 0
 295 599 271 610 256 610 c 0
 201 609 195 552 195 456 c 2
 195 384 l 1
 323 384 l 1
 323 339 l 1
 197 339 l 1
 197 236 l 2
 197 178 195 129 195 86 c 2
 195 70 l 2
 195 31 219 32 301 28 c 1
 301 -4 l 1
 242 -4 194 0 160 0 c 0
 124 0 79 -4 30 -4 c 1
 30 28 l 1
 102 30 121 33 121 70 c 2
 121 86 l 2
 121 129 119 178 119 236 c 2
 119 339 l 1
 30 339 l 1
EndSplineSet
Layer: 2
SplineSet
30 339 m 5
 30 384 l 5
 121 384 l 5
 121 430 125 500 147 545 c 4
 183 620 250 691 315 691 c 4
 323 691 362 686 362 644 c 4
 362 606 339 599 316 599 c 4
 295 599 271 610 256 610 c 4
 201 609 195 552 195 456 c 6
 195 384 l 5
 323 384 l 5
 323 339 l 5
 197 339 l 5
 197 236 l 6
 197 178 195 129 195 86 c 6
 195 70 l 6
 195 31 219 32 301 28 c 5
 301 -4 l 5
 242 -4 194 0 160 0 c 4
 124 0 82 -4 28 -4 c 5
 28 28 l 5
 100 30 121 32 121 70 c 6
 121 86 l 6
 121 129 119 178 119 236 c 6
 119 339 l 5
 30 339 l 5
EndSplineSet
EndChar

StartChar: g
Encoding: 103 103 6
Width: 466
VWidth: 0
Flags: HW
LayerCount: 3
Fore
SplineSet
112 -34 m 0
 94 -52 81 -78 81 -100 c 0
 81 -155 140 -198 202 -198 c 0
 269 -198 352 -167 352 -99 c 0
 352 -36 256 -21 187 -14 c 0
 178 -13 168 -12 161 -12 c 0
 140 -12 130 -16 112 -34 c 0
342 360 m 1
 454 360 l 1
 452 316 l 1
 371 315 l 1
 371 315 377 297 377 277 c 0
 377 196 305 136 209 136 c 0
 200 136 190 140 184 136 c 0
 166 125 145 112 145 100 c 0
 145 87 148 74 162 66 c 0
 174 59 200 55 220 54 c 0
 317 47 419 30 419 -62 c 0
 419 -167 306 -227 197 -227 c 0
 87 -227 11 -188 11 -108 c 0
 11 -53 77 -26 112 0 c 0
 115 3 113 9 109 11 c 0
 93 21 58 62 58 87 c 0
 58 94 74 102 93 112 c 0
 116 125 144 139 151 143 c 0
 157 146 150 153 145 155 c 0
 87 175 58 219 58 276 c 0
 58 350 140 401 221 401 c 0
 285 401 309 386 342 360 c 1
300 261 m 0
 300 320 265 372 218 372 c 0
 163 372 139 322 139 276 c 0
 139 227 162 164 209 164 c 0
 265 164 300 200 300 261 c 0
EndSplineSet
EndChar

StartChar: h
Encoding: 104 104 7
Width: 507
VWidth: 0
Flags: HW
HStem: -4 26<19 78.6069 172.77 224 294 347.397 438.174 485> 341 53<232.256 324.685> 634 23<31 65.7134> 693 20G<137 173>
VStem: 90 74<28.7154 311.76 340.302 616.597> 355 74<25.9661 309.494>
LayerCount: 3
Fore
SplineSet
164 280 m 2
 164 139 l 2
 164 113 164 87 165 60 c 0
 166 30 181 22 224 22 c 1
 224 -4 l 1
 183 -4 162 0 128 0 c 0
 92 0 57 -4 19 -4 c 1
 19 22 l 1
 62 22 88 28 89 60 c 0
 90 94 90 119 90 139 c 2
 90 344 l 2
 90 405 90 549 89 587 c 0
 88 613 74 634 31 634 c 1
 31 657 l 1
 82 672 113 687 161 713 c 1
 173 703 l 1
 166 597 164 605 164 376 c 2
 164 342 l 2
 164 326 174 332 181 337 c 0
 210 360 254 394 307 394 c 0
 384 394 429 343 429 266 c 2
 429 130 l 2
 429 106 429 82 430 68 c 0
 433 25 445 22 485 22 c 1
 485 -4 l 1
 462 -4 431 0 397 0 c 0
 372 0 346 -4 294 -4 c 1
 294 22 l 1
 338 22 353 27 354 60 c 0
 355 96 355 120 355 140 c 2
 355 249 l 2
 355 305 316 341 268 341 c 0
 225 341 202 324 181 308 c 0
 166 297 164 290 164 280 c 2
EndSplineSet
EndChar

StartChar: i
Encoding: 105 105 8
Width: 256
VWidth: 0
Flags: HW
HStem: -4 26<27 77.4662 181.252 232> 326 20<38 73.068> 545 97<94.0684 173.932>
VStem: 86 96<552.735 634.56> 93 74<30.4484 83 272 321.204>
LayerCount: 3
Fore
SplineSet
93 115 m 2xe8
 93 136 92 241 91 272 c 0
 89 322 74 326 38 326 c 1
 38 346 l 1
 82 355 127 376 162 392 c 1
 170 382 l 1
 169 350 167 140 167 114 c 2
 167 71 l 6
 167 45 171 22 232 22 c 5
 232 -4 l 5
 192 -4 164 0 131 0 c 4
 95 0 62 -4 27 -4 c 5
 27 22 l 5
 89 22 93 47 93 73 c 6
 93 115 l 2xe8
86 594 m 0xf0
 86 621 107 642 134 642 c 0
 161 642 182 621 182 594 c 0
 182 567 161 545 134 545 c 0
 107 545 86 567 86 594 c 0xf0
EndSplineSet
EndChar

StartChar: j
Encoding: 106 106 9
Width: 266
VWidth: 0
Flags: HW
HStem: 545 97<104.068 183.932>
VStem: 96 96<552.735 634.56> 105 74<-116.592 287.334>
LayerCount: 3
Fore
SplineSet
105 -7 m 2
 105 115 l 2
 105 136 104 221 104 252 c 0
 104 303 93 308 57 316 c 1
 57 332 l 1
 102 348 138 366 178 388 c 1
 190 377 l 1
 190 377 179 340 179 234 c 2
 179 -4 l 2
 179 -127 146 -155 11 -233 c 1
 0 -214 l 1
 60 -167 105 -153 105 -7 c 2
96 594 m 0
 96 621 117 642 144 642 c 0
 171 642 192 621 192 594 c 0
 192 567 171 545 144 545 c 0
 117 545 96 567 96 594 c 0
EndSplineSet
EndChar

StartChar: k
Encoding: 107 107 10
Width: 531
VWidth: 0
Flags: HW
HStem: -4 26<35 94.6069 188.77 240 291 344.804 460.328 508> 368 26<262 313.327 394.521 457> 619 16<47 69.3949>
VStem: 106 74<28.7154 189.486 208.002 608.648>
LayerCount: 3
Fore
SplineSet
317 344 m 0
 317 360 300 368 262 368 c 1
 262 394 l 1
 292 394 336 391 361 391 c 0
 395 391 420 394 457 394 c 1
 457 368 l 1
 437 366 403 369 373 340 c 2
 298 268 l 2
 289 260 285 256 285 251 c 0
 285 246 289 241 296 232 c 0
 334 185 385 117 439 54 c 0
 457 34 464 28 508 22 c 1
 508 -4 l 1
 471 -4 432 0 398 0 c 0
 373 0 343 -4 291 -4 c 1
 291 22 l 1
 329 22 349 30 349 46 c 0
 349 59 277 144 242 189 c 0
 232 201 228 204 223 204 c 0
 218 204 212 198 199 187 c 0
 181 172 180 173 180 153 c 2
 180 139 l 2
 180 113 180 87 181 60 c 0
 182 30 197 22 240 22 c 1
 240 -4 l 1
 204 -4 169 0 144 0 c 0
 108 0 73 -4 35 -4 c 1
 35 22 l 1
 78 22 104 28 105 60 c 0
 106 94 106 119 106 139 c 2
 106 344 l 2
 106 405 106 529 105 567 c 0
 104 593 90 619 47 619 c 1
 47 635 l 1
 93 650 122 665 170 693 c 1
 184 685 l 1
 180 626 180 546 180 480 c 2
 180 232 l 2
 180 211 180 208 184 208 c 0
 192 208 250 265 264 278 c 0
 293 306 317 331 317 344 c 0
EndSplineSet
EndChar

StartChar: l
Encoding: 108 108 11
Width: 257
VWidth: 0
Flags: HWO
HStem: -4 26<30 81.3721 180.968 235> 630 21<35 64.2706> 683 20G<140.5 173>
VStem: 93 74<29.9831 622.606>
LayerCount: 3
Fore
SplineSet
167 116 m 2
 167 71 l 2
 167 45 174 22 235 22 c 1
 235 -4 l 1
 215 -4 164 0 131 0 c 0
 95 0 56 -4 30 -4 c 1
 30 22 l 1
 92 22 93 47 93 73 c 2
 93 583 l 2
 93 609 78 630 35 630 c 1
 35 651 l 1
 82 666 116 680 165 702 c 1
 173 696 l 1
 173 631 167 237 167 116 c 2
EndSplineSet
EndChar

StartChar: m
Encoding: 109 109 12
Width: 282
VWidth: 0
Flags: HW
LayerCount: 3
Fore
SplineSet
91 254 m 0
 91 282 113 304 141 304 c 0
 169 304 191 282 191 254 c 0
 191 226 169 204 141 204 c 0
 113 204 91 226 91 254 c 0
EndSplineSet
EndChar

StartChar: n
Encoding: 110 110 13
Width: 282
VWidth: 0
Flags: HW
LayerCount: 3
Fore
SplineSet
91 254 m 0
 91 282 113 304 141 304 c 0
 169 304 191 282 191 254 c 0
 191 226 169 204 141 204 c 0
 113 204 91 226 91 254 c 0
EndSplineSet
EndChar

StartChar: o
Encoding: 111 111 14
Width: 282
VWidth: 0
Flags: HW
LayerCount: 3
Fore
SplineSet
91 254 m 0
 91 282 113 304 141 304 c 0
 169 304 191 282 191 254 c 0
 191 226 169 204 141 204 c 0
 113 204 91 226 91 254 c 0
EndSplineSet
EndChar

StartChar: p
Encoding: 112 112 15
Width: 282
VWidth: 0
Flags: HW
LayerCount: 3
Fore
SplineSet
91 254 m 0
 91 282 113 304 141 304 c 0
 169 304 191 282 191 254 c 0
 191 226 169 204 141 204 c 0
 113 204 91 226 91 254 c 0
EndSplineSet
EndChar

StartChar: q
Encoding: 113 113 16
Width: 282
VWidth: 0
Flags: HW
LayerCount: 3
Fore
SplineSet
91 254 m 0
 91 282 113 304 141 304 c 0
 169 304 191 282 191 254 c 0
 191 226 169 204 141 204 c 0
 113 204 91 226 91 254 c 0
EndSplineSet
EndChar

StartChar: r
Encoding: 114 114 17
Width: 282
VWidth: 0
Flags: HW
LayerCount: 3
Fore
SplineSet
91 254 m 0
 91 282 113 304 141 304 c 0
 169 304 191 282 191 254 c 0
 191 226 169 204 141 204 c 0
 113 204 91 226 91 254 c 0
EndSplineSet
EndChar

StartChar: s
Encoding: 115 115 18
Width: 282
VWidth: 0
Flags: HW
LayerCount: 3
Fore
SplineSet
91 254 m 0
 91 282 113 304 141 304 c 0
 169 304 191 282 191 254 c 0
 191 226 169 204 141 204 c 0
 113 204 91 226 91 254 c 0
EndSplineSet
EndChar

StartChar: t
Encoding: 116 116 19
Width: 282
VWidth: 0
Flags: HW
LayerCount: 3
Fore
SplineSet
91 254 m 0
 91 282 113 304 141 304 c 0
 169 304 191 282 191 254 c 0
 191 226 169 204 141 204 c 0
 113 204 91 226 91 254 c 0
EndSplineSet
EndChar

StartChar: u
Encoding: 117 117 20
Width: 282
VWidth: 0
Flags: HW
LayerCount: 3
Fore
SplineSet
91 254 m 0
 91 282 113 304 141 304 c 0
 169 304 191 282 191 254 c 0
 191 226 169 204 141 204 c 0
 113 204 91 226 91 254 c 0
EndSplineSet
EndChar

StartChar: v
Encoding: 118 118 21
Width: 282
VWidth: 0
Flags: HW
LayerCount: 3
Fore
SplineSet
91 254 m 0
 91 282 113 304 141 304 c 0
 169 304 191 282 191 254 c 0
 191 226 169 204 141 204 c 0
 113 204 91 226 91 254 c 0
EndSplineSet
EndChar

StartChar: w
Encoding: 119 119 22
Width: 282
VWidth: 0
Flags: HW
LayerCount: 3
Fore
SplineSet
91 254 m 0
 91 282 113 304 141 304 c 0
 169 304 191 282 191 254 c 0
 191 226 169 204 141 204 c 0
 113 204 91 226 91 254 c 0
EndSplineSet
EndChar

StartChar: x
Encoding: 120 120 23
Width: 282
VWidth: 0
Flags: HW
LayerCount: 3
Fore
SplineSet
91 254 m 0
 91 282 113 304 141 304 c 0
 169 304 191 282 191 254 c 0
 191 226 169 204 141 204 c 0
 113 204 91 226 91 254 c 0
EndSplineSet
EndChar

StartChar: y
Encoding: 121 121 24
Width: 282
VWidth: 0
Flags: HW
LayerCount: 3
Fore
SplineSet
91 254 m 0
 91 282 113 304 141 304 c 0
 169 304 191 282 191 254 c 0
 191 226 169 204 141 204 c 0
 113 204 91 226 91 254 c 0
EndSplineSet
EndChar

StartChar: z
Encoding: 122 122 25
Width: 282
VWidth: 0
Flags: HW
LayerCount: 3
Fore
SplineSet
91 254 m 0
 91 282 113 304 141 304 c 0
 169 304 191 282 191 254 c 0
 191 226 169 204 141 204 c 0
 113 204 91 226 91 254 c 0
EndSplineSet
EndChar

StartChar: zero
Encoding: 48 48 52
Width: 282
VWidth: 0
Flags: HW
LayerCount: 3
Fore
SplineSet
91 254 m 0
 91 282 113 304 141 304 c 0
 169 304 191 282 191 254 c 0
 191 226 169 204 141 204 c 0
 113 204 91 226 91 254 c 0
EndSplineSet
EndChar

StartChar: one
Encoding: 49 49 53
Width: 282
VWidth: 0
Flags: HW
LayerCount: 3
Fore
SplineSet
91 254 m 0
 91 282 113 304 141 304 c 0
 169 304 191 282 191 254 c 0
 191 226 169 204 141 204 c 0
 113 204 91 226 91 254 c 0
EndSplineSet
EndChar

StartChar: two
Encoding: 50 50 54
Width: 282
VWidth: 0
Flags: HW
LayerCount: 3
Fore
SplineSet
91 254 m 0
 91 282 113 304 141 304 c 0
 169 304 191 282 191 254 c 0
 191 226 169 204 141 204 c 0
 113 204 91 226 91 254 c 0
EndSplineSet
EndChar

StartChar: three
Encoding: 51 51 55
Width: 282
VWidth: 0
Flags: HW
LayerCount: 3
Fore
SplineSet
91 254 m 0
 91 282 113 304 141 304 c 0
 169 304 191 282 191 254 c 0
 191 226 169 204 141 204 c 0
 113 204 91 226 91 254 c 0
EndSplineSet
EndChar

StartChar: four
Encoding: 52 52 56
Width: 282
VWidth: 0
Flags: HW
LayerCount: 3
Fore
SplineSet
91 254 m 0
 91 282 113 304 141 304 c 0
 169 304 191 282 191 254 c 0
 191 226 169 204 141 204 c 0
 113 204 91 226 91 254 c 0
EndSplineSet
EndChar

StartChar: five
Encoding: 53 53 57
Width: 282
VWidth: 0
Flags: HW
LayerCount: 3
Fore
SplineSet
91 254 m 0
 91 282 113 304 141 304 c 0
 169 304 191 282 191 254 c 0
 191 226 169 204 141 204 c 0
 113 204 91 226 91 254 c 0
EndSplineSet
EndChar

StartChar: six
Encoding: 54 54 58
Width: 282
VWidth: 0
Flags: HW
LayerCount: 3
Fore
SplineSet
91 254 m 0
 91 282 113 304 141 304 c 0
 169 304 191 282 191 254 c 0
 191 226 169 204 141 204 c 0
 113 204 91 226 91 254 c 0
EndSplineSet
EndChar

StartChar: seven
Encoding: 55 55 59
Width: 282
VWidth: 0
Flags: HW
LayerCount: 3
Fore
SplineSet
91 254 m 0
 91 282 113 304 141 304 c 0
 169 304 191 282 191 254 c 0
 191 226 169 204 141 204 c 0
 113 204 91 226 91 254 c 0
EndSplineSet
EndChar

StartChar: eight
Encoding: 56 56 60
Width: 282
VWidth: 0
Flags: HW
LayerCount: 3
Fore
SplineSet
91 254 m 0
 91 282 113 304 141 304 c 0
 169 304 191 282 191 254 c 0
 191 226 169 204 141 204 c 0
 113 204 91 226 91 254 c 0
EndSplineSet
EndChar

StartChar: nine
Encoding: 57 57 61
Width: 282
VWidth: 0
Flags: HW
LayerCount: 3
Fore
SplineSet
91 254 m 0
 91 282 113 304 141 304 c 0
 169 304 191 282 191 254 c 0
 191 226 169 204 141 204 c 0
 113 204 91 226 91 254 c 0
EndSplineSet
EndChar

StartChar: f.001
Encoding: 65536 -1 63
Width: 334
VWidth: 0
Flags: W
HStem: -4 32<42 116.978 205.215 306> 339 45<42 119 197 323> 636 46<253.068 357.323>
VStem: 121 74<37.7822 339 384 528.216>
LayerCount: 3
Fore
SplineSet
195 384 m 1
 323 384 l 1
 323 339 l 1
 197 339 l 1
 197 236 l 2
 197 178 195 129 195 86 c 2
 195 70 l 2
 195 33 224 32 306 28 c 1
 306 -4 l 1
 247 -4 194 0 160 0 c 0
 124 0 91 -4 42 -4 c 1
 42 28 l 1
 113 30 121 32 121 70 c 2
 121 86 l 2
 121 129 119 178 119 236 c 2
 119 339 l 1
 42 339 l 1
 42 384 l 1
 121 384 l 1
 121 512 154 575 206 626 c 0
 241 660 285 682 345 682 c 0
 388 682 446 668 446 625 c 0
 446 601 426 588 411 588 c 0
 367 588 357 636 298 636 c 0
 234 636 195 580 195 457 c 2
 195 384 l 1
EndSplineSet
Layer: 2
SplineSet
195 344 m 5
 195 70 l 6
 195 31 227 32 309 28 c 5
 309 -4 l 5
 250 -4 194 0 160 0 c 4
 124 0 78 -4 40 -4 c 5
 40 28 l 5
 112 30 121 32 121 70 c 6
 121 344 l 5
 40 344 l 5
 40 389 l 5
 121 389 l 5
 121 555 201 682 345 682 c 4
 388 682 446 668 446 625 c 4
 446 601 426 588 411 588 c 4
 367 588 357 636 298 636 c 4
 242 636 195 585 195 449 c 6
 195 389 l 5
 323 389 l 5
 323 344 l 5
 195 344 l 5
EndSplineSet
EndChar
